<svg xmlns="http://www.w3.org/2000/svg" xml:space="preserve" fill-rule="evenodd" stroke-linejoin="round" stroke-miterlimit="2" clip-rule="evenodd" viewBox="0 0 525 525"><g fill-rule="nonzero"><path fill="#f4d82b" d="M523.18791855 263.40854406c0 144.47511558-117.12092703 261.59187594-261.59604261 261.59187594C117.11676036 525.00042 0 407.88365964 0 263.40854406 0 118.93342848 117.11676036 1.81250145 261.59187594 1.81250145c144.47511558 0 261.59604261 117.12092703 261.59604261 261.59604261Z"/><path fill="#126aab" d="M407.32532586 193.50432147h-51.27920769l23.53751883-29.8750239h-47.22087111l-82.39589925 101.94174822h-.34583361l-7.65417279-48.98753919h-.02083335c-1.59583461-11.89584285-10.68750855-23.07918513-23.39585205-23.07918513H101.12091423l-25.15002012 86.31673572c-4.30000344 11.2083423-1.5833346 25.42502034 9.57500766 31.51252521 2.78333556 1.52083455 5.70417123 2.30833518 8.6250069 2.50416867h79.05006324l8.44167342-28.9583565h-62.60421675l4.76667048-16.37084643h60.68338188l8.43750675-28.97918985h-60.67921521l4.97500398-17.06251365h62.85421695l11.42084247 70.9583901c2.50416867 10.833342 11.15417559 20.3750163 22.89168498 20.3750163v.03750003h26.83752147l76.40422779-96.98757759-18.23751459 62.61255009.03333336.01666668c-.06250005.15416679-.11666676.31250025-.17916681.47083371l-1.31250105 4.50833694c-2.09166834 10.10000808 1.03750083 21.27085035 10.50417507 26.62085463 3.39583605 1.9166682 7.01250561 2.74583553 10.60000848 2.70416883v.05416671h15.20001216l25.50835374-91.37090643h22.88335164c11.90834286.07500006 16.86251349 3.27916929 14.98751199 9.71667444-1.66250133 5.69583789-7.02917229 7.1250057-20.03751603 7.1250057h-12.59167674l-8.04583977 29.14168998h13.24584393c53.78754303 0 66.22088631-16.57501326 69.97505598-34.583361 2.69166882-12.88334364.68750055-40.36253229-52.85837562-40.36253229ZM86.82090279 358.46695344h-13.4583441l7.04583897-24.13751931h13.45417743l-.72916725 2.48750199H82.48756599l-2.26666848 7.77917289h10.00417467l-.72500058 2.47500198H79.49589693l-2.59166874 8.88334044h10.65000852l-.73333392 2.51250201ZM95.71674324 358.46695344l-1.5833346-18.09584781h2.93750235l.76250061 10.73334192c.15416679 2.50833534.19583349 4.13750331.12916677 4.88750391h.13333344c.2916669-.5833338 1.02500082-1.79583477 2.20416843-3.6250029 1.17500094-1.8333348 3.78750303-5.833338 7.8333396-11.99584293h2.94166902l-12.15000972 18.09584781h-3.2083359ZM114.20425803 356.53361856c1.70416803 0 3.17916921-.46666704 4.42917021-1.40416779 1.24583433-.93333408 2.11666836-2.24583513 2.60416875-3.92916981l.47916705-1.63750131-2.77500222.12083343c-2.20000176.07500006-3.8750031.41250033-5.01250401 1.01250081-1.13750091.60416715-1.88750151 1.53333456-2.25833514 2.80416891-.28750023.98750079-.2083335 1.74166806.24166686 2.25833514.44583369.51666708 1.21250097.77500062 2.2916685.77500062Zm5.6250045 1.93333488.2083335-2.57500206h-.13333344c-1.23333432 1.13333424-2.35416855 1.90000152-3.37083603 2.30416851-1.01666748.40000032-2.19166842.60416715-3.53750283.60416715-1.7916681 0-3.06250245-.46666704-3.81250305-1.39166778-.7500006-.92083407-.8750007-2.23750179-.37916697-3.94583649 1.06666752-3.65416959 4.55000364-5.56667112 10.44584169-5.74583793l3.10000248-.09583341.32916693-1.1250009c.41250033-1.42083447.416667-2.47083531 0-3.14583585-.41250033-.67916721-1.28750103-1.01250081-2.63333544-1.01250081-1.50833454 0-3.34583601.4583337-5.52083775 1.38333444l-.23333352-2.09583501c1.03333416-.48750039 2.12083503-.86250069 3.26666928-1.14166758 1.13750091-.27500022 2.24583513-.40833366 3.31250265-.40833366 2.15833506 0 3.62083623.47500038 4.3750035 1.42916781.76250061.96250077.833334 2.49583533.22083351 4.61250369l-3.60416955 12.35000988h-2.03333496ZM139.89177858 358.46695344l3.4166694-11.70417603c.42916701-1.47916785.41250033-2.57916873-.04583337-3.30416931-.4583337-.72916725-1.40000112-1.09166754-2.8333356-1.09166754-1.89166818 0-3.42916941.50833374-4.60833702 1.53333456-1.18333428 1.02916749-2.11250169 2.71666884-2.80000224 5.07083739l-2.77500222 9.49584093h-2.74166886l5.28333756-18.09584781h2.22916845l-.27500022 2.47500198h.12916677c.82083399-.89166738 1.81250145-1.5833346 2.97083571-2.07083499 1.15000092-.49166706 2.35416855-.73750059 3.59583621-.73750059 2.17916841 0 3.6666696.52916709 4.46250357 1.57916793.7916673 1.05000084.85416735 2.73333552.17916681 5.0416707l-3.44583609 11.80834278h-2.74166886ZM153.71678964 346.1669436c-.36666696 1.26666768-.28750023 2.22083511.23750019 2.87083563.52500042.65000052 1.42500114.97500078 2.70000216.97500078 2.67916881 0 4.39583685-1.30000104 5.15417079-3.89583645.7916673-2.72083551-.16250013-4.07916993-2.8750023-4.07916993-1.28750103 0-2.37916857.34583361-3.27083595 1.03750083-.90000072.69583389-1.54583457 1.72500138-1.94583489 3.09166914Zm-5.9583381 15.34167894c-.28750023.97916745-.09166674 1.72083471.58750047 2.22916845.67916721.50416707 1.78750143.75833394 3.32916933.75833394 2.30000184 0 4.10416995-.34583361 5.41250433-1.03333416 1.30416771-.68750055 2.12916837-1.62083463 2.47500198-2.80000224.28333356-.97916745.18333348-1.65833466-.31666692-2.03750163-.49583373-.37916697-1.57500126-.57083379-3.2500026-.57083379h-3.28333596c-1.24583433 0-2.30000184.29583357-3.17083587.89166738-.86666736.59583381-1.4583345 1.45000116-1.78333476 2.56250205Zm20.60001648-21.13751691-.50833374 1.73333472-3.46666944.39583365c.19166682.38333364.32083359.88750071.38750031 1.50833454.05416671.62083383-.02500002 1.32500106-.25416687 2.10833502-.51666708 1.77500142-1.53750123 3.18750255-3.05416911 4.24167006-1.52083455 1.05833418-3.33750267 1.58750127-5.45000436 1.58750127-.5416671 0-1.03333416-.04583337-1.47916785-.13750011-1.35000108.62083383-2.15833506 1.39583445-2.43333528 2.3333352-.14583345.49583373-.04583337.86250069.29583357 1.10000088.33750027.23333352 1.0000008.35000028 1.99166826.35000028h3.20416923c1.9583349 0 3.34583601.41250033 4.15416999 1.24166766.80416731.82500066.98333412 2.02500162.52916709 3.60000288-.58750047 2.00416827-1.83750147 3.52916949-3.750003 4.57917033s-4.41250353 1.57916793-7.49583933 1.57916793c-2.36666856 0-4.06250325-.44166702-5.08750407-1.32083439-1.02500082-.87916737-1.30416771-2.1250017-.83750067-3.73333632.32083359-1.10000088.95000076-2.05000164 1.89166818-2.85416895.93750075-.80416731 2.08750167-1.35000108 3.44583609-1.63750131-.40000032-.2083335-.69583389-.53333376-.87916737-.97500078-.18333348-.44166702-.19166682-.95000076-.02083335-1.53333456.19583349-.65833386.53750043-1.23750099 1.03750083-1.73333472.49583373-.49583373 1.19166762-.97500078 2.083335-1.43750115-.82500066-.38333364-1.39583445-1.03750083-1.71666804-1.96666824-.31250025-.92500074-.30416691-1.97916825.04583337-3.17083587.57916713-1.97916825 1.61666796-3.50833614 3.12083583-4.57917033 1.5000012-1.07083419 3.34166934-1.61250129 5.52083775-1.61250129.94583409 0 1.77083475.10833342 2.46250197.3333336h6.26250501ZM178.40014272 342.33777387c-1.45416783 0-2.7500022.47083371-3.89166978 1.41250113-1.14166758.95000076-2.02916829 2.25833514-2.67500214 3.93333648h9.46250757c.50416707-1.72916805.50833374-3.05416911 0-3.97083651-.5000004-.9166674-1.46666784-1.3750011-2.89583565-1.3750011Zm-4.06250325 16.46251317c-2.67500214 0-4.54583697-.81666732-5.61667116-2.44583529-1.07083419-1.62916797-1.18333428-3.89166978-.34166694-6.7916721.85000068-2.91250233 2.24583513-5.22917085 4.18333668-6.94583889 1.93750155-1.72083471 4.12083663-2.57916873 6.5416719-2.57916873 2.26666848 0 3.84166974.74583393 4.72917045 2.23750179.88333404 1.49166786.97083411 3.46250277.25833354 5.90417139l-.50416707 1.73333472h-12.46667664c-.57083379 2.1250017-.50416707 3.73750299.19583349 4.84167054.70000056 1.10000088 1.97083491 1.65000132 3.82083639 1.65000132 1.94583489 0 3.99166986-.40833366 6.13750491-1.22083431l-.71250057 2.43750195c-1.09583421.42500034-2.09583501.72083391-3.01666908.90416739-.9166674.17916681-1.98333492.27500022-3.2083359.27500022ZM188.50431747 358.46695344h-2.74166886l7.49583933-25.69585389h2.74166886l-7.49583933 25.69585389ZM200.79599397 335.46276837c.17916681-.6250005.46666704-1.0833342.86250069-1.3750011.39583365-.2916669.82500066-.44166702 1.28750103-.44166702.43750035 0 .77500062.15000012 1.00833414.44583369.23333352.29583357.25833354.75416727.07916673 1.37083443-.17916681.62083383-.47500038 1.07916753-.87916737 1.37916777-.40833366.30416691-.83750067.45416703-1.27500102.45416703-.4583337 0-.80000064-.15000012-1.02083415-.45416703-.22500018-.30000024-.24583353-.75833394-.06250005-1.37916777Zm-3.73750299 23.00418507h-2.74583553l5.28333756-18.09584781h2.74166886l-5.27917089 18.09584781ZM215.98350612 353.52944949c-.49166706 1.68333468-1.5000012 2.98333572-3.01666908 3.90000312-1.52500122.91250073-3.42083607 1.37083443-5.68750455 1.37083443-2.40000192 0-4.15833666-.38333364-5.28333756-1.14166758l.74166726-2.5416687c.74583393.44166702 1.57500126.78333396 2.500002 1.03750083.92083407.25416687 1.84583481.37916697 2.77083555.37916697 1.42916781 0 2.60000208-.22500018 3.5000028-.68333388.90416739-.4583337 1.49166786-1.15416759 1.76666808-2.09166834.20416683-.70000056.07500006-1.30416771-.38750031-1.80833478-.46666704-.49583373-1.48333452-1.08750087-3.05833578-1.77083475-1.5000012-.62916717-2.53750203-1.17500094-3.10833582-1.64583465-.57916713-.46666704-.95416743-1.0000008-1.1250009-1.59166794-.17500014-.59583381-.14166678-1.30416771.10000008-2.12916837.42916701-1.47916785 1.3750011-2.64166878 2.82500226-3.49583613 1.44166782-.85416735 3.21666924-1.27916769 5.30833758-1.27916769 1.94583489 0 3.73750299.39583365 5.36250429 1.19166762l-1.62083463 2.22916845c-1.60000128-.7500006-3.13333584-1.12083423-4.61250369-1.12083423-1.29583437 0-2.33750187.20000016-3.11666916.60833382-.77500062.40833366-1.27500102.96666744-1.48333452 1.68333468-.14166678.48333372-.13750011.89583405.01250001 1.23750099.15000012.34166694.45416703.6666672.91250073.97500078.4583337.30833358 1.38750111.75416727 2.77916889 1.33750107 1.92083487.77916729 3.14166918 1.57083459 3.66250293 2.36250189.52500042.7916673.60833382 1.78750143.25833354 2.98750239ZM226.14184758 358.80028704c-2.62083543 0-4.4166702-.80833398-5.38333764-2.42083527-.96250077-1.61666796-1.01666748-3.89583645-.15416679-6.84583881.88333404-3.02500242 2.2916685-5.36667096 4.23333672-7.01667228 1.93750155-1.65000132 4.26250341-2.47916865 6.95417223-2.47916865.87083403 0 1.71666804.09583341 2.53333536.28333356.80833398.18750015 1.42916781.40416699 1.85000148.65833386l-1.52083455 2.32916853c-.53333376-.24166686-1.13333424-.44166702-1.80416811-.60416715-.67083387-.15833346-1.28333436-.23750019-1.82916813-.23750019-3.67500294 0-6.20000496 2.34583521-7.56667272 7.03750563-.65000052 2.22083511-.70000056 3.92916981-.15416679 5.11667076.55416711 1.18750095 1.71250137 1.78333476 3.47500278 1.78333476 1.50416787 0 3.14583585-.32916693 4.92083727-.97500078l-.7083339 2.42916861c-1.39583445.6250005-3.00833574.94166742-4.84583721.94166742ZM247.48769799 358.46695344l3.4166694-11.70417603c.43333368-1.47916785.416667-2.57916873-.04583337-3.30416931-.4583337-.72916725-1.40000112-1.09166754-2.8333356-1.09166754-1.90416819 0-3.44583609.51666708-4.62083703 1.55416791-1.17916761 1.03333416-2.11250169 2.72916885-2.80000224 5.08750407l-2.75833554 9.4583409h-2.74166886l7.49583933-25.69585389h2.74166886l-2.26666848 7.77917289c-.27500022.93750075-.54583377 1.71250137-.81666732 2.32500186h.1666668c.79583397-.86666736 1.76250141-1.55416791 2.90416899-2.05416831 1.14166758-.49583373 2.35000188-.74583393 3.62916957-.74583393 2.21250177 0 3.72083631.52083375 4.52083695 1.57500126.80000064 1.05000084.86666736 2.72083551.20000016 5.00833734l-3.45000276 11.80834278h-2.74166886ZM267.47104731 342.33777387c-1.4583345 0-2.7500022.47083371-3.89166978 1.41250113-1.14166758.95000076-2.02916829 2.25833514-2.67500214 3.93333648h9.46250757c.50416707-1.72916805.50416707-3.05416911 0-3.97083651-.5000004-.9166674-1.46666784-1.3750011-2.89583565-1.3750011Zm-4.06250325 16.46251317c-2.67500214 0-4.54583697-.81666732-5.61667116-2.44583529-1.07083419-1.62916797-1.18333428-3.89166978-.34166694-6.7916721.85000068-2.91250233 2.24583513-5.22917085 4.18333668-6.94583889 1.93750155-1.72083471 4.11666996-2.57916873 6.5416719-2.57916873 2.26250181 0 3.84166974.74583393 4.72917045 2.23750179.88333404 1.49166786.97083411 3.46250277.25833354 5.90417139l-.50416707 1.73333472h-12.46667664c-.57083379 2.1250017-.50416707 3.73750299.19583349 4.84167054.70000056 1.10000088 1.97083491 1.65000132 3.82083639 1.65000132 1.94583489 0 3.99166986-.40833366 6.13750491-1.22083431l-.71250057 2.43750195c-1.09583421.42500034-2.09583501.72083391-3.01666908.90416739-.9166674.17916681-1.98333492.27500022-3.2083359.27500022ZM304.86274389 334.32943413h3.02083575l-15.74584593 24.13751931h-2.77083555l-1.61250129-24.13751931h2.97083571l.99166746 15.62084583c.11666676 1.7916681.11250009 3.53750283-.00833334 5.23333752.92083407-1.78750143 1.95416823-3.56250285 3.11250249-5.33750427l10.0416747-15.51667908ZM308.22524658 349.40027952c-.67083387 2.31250185-.72500058 4.07500326-.15000012 5.28333756.56666712 1.21250097 1.7500014 1.81666812 3.54583617 1.81666812 1.7916681 0 3.333336-.60000048 4.61250369-1.80833478 1.28333436-1.20416763 2.26250181-2.96666904 2.93750235-5.2916709.67083387-2.30000184.72083391-4.04583657.13750011-5.24167086-.57916713-1.19583429-1.77916809-1.7916681-3.59583621-1.7916681-1.7916681 0-3.32500266.58750047-4.57500366 1.77083475-1.26250101 1.17500094-2.22916845 2.93333568-2.91250233 5.26250421Zm13.78751103 0c-.85833402 2.95000236-2.27083515 5.25417087-4.24167006 6.91250553-1.97083491 1.65833466-4.26667008 2.48750199-6.88333884 2.48750199-1.62083463 0-2.94583569-.38333364-3.97916985-1.14166758-1.03333416-.76250061-1.68333468-1.85000148-1.95416823-3.26666928-.26250021-1.42500114-.12083343-3.0833358.43333368-4.99167066.86250069-2.95000236 2.26666848-5.24583753 4.22500338-6.89167218 1.95416823-1.64583465 4.23750339-2.47083531 6.85833882-2.47083531 2.53333536 0 4.30000344.84166734 5.30000424 2.52916869 1.00416747 1.68333468 1.07916753 3.96250317.24166686 6.8333388ZM326.9169282 358.46695344h-2.74583553l7.500006-25.69585389h2.74166886l-7.49583933 25.69585389ZM338.14193718 349.20027936c.6666672-.6666672 1.64583465-1.55000124 2.92916901-2.63750211l7.65417279-6.19167162h3.25416927l-9.57917433 7.7083395 4.80833718 10.38750831h-3.31666932l-3.89583645-8.55417351-2.5833354 1.78750143-1.97500158 6.76667208h-2.71250217l7.500006-25.69585389h2.7083355l-3.97500318 13.6250109c-.17916681.60833382-.49583373 1.5416679-.95416743 2.80416891h.13750011ZM363.59195754 353.52944949c-.48750039 1.68333468-1.49583453 2.98333572-3.01250241 3.90000312-1.52500122.91250073-3.42083607 1.37083443-5.68750455 1.37083443-2.40000192 0-4.15833666-.38333364-5.28333756-1.14166758l.74166726-2.5416687c.74166726.44166702 1.57500126.78333396 2.49583533 1.03750083.92500074.25416687 1.85000148.37916697 2.77083555.37916697 1.43333448 0 2.60000208-.22500018 3.50416947-.68333388.90416739-.4583337 1.49166786-1.15416759 1.76666808-2.09166834.20416683-.70000056.07500006-1.30416771-.38750031-1.80833478-.46666704-.49583373-1.48750119-1.08750087-3.06250245-1.77083475-1.49583453-.62916717-2.53750203-1.17500094-3.10833582-1.64583465-.57500046-.46666704-.95000076-1.0000008-1.12083423-1.59166794-.17500014-.59583381-.14166678-1.30416771.10000008-2.12916837.42916701-1.47916785 1.3750011-2.64166878 2.82083559-3.49583613 1.44583449-.85416735 3.21666924-1.27916769 5.30833758-1.27916769 1.95000156 0 3.73750299.39583365 5.36667096 1.19166762l-1.62083463 2.22916845c-1.60416795-.7500006-3.13750251-1.12083423-4.61250369-1.12083423-1.30000104 0-2.34166854.20000016-3.11666916.60833382-.77916729.40833366-1.27500102.96666744-1.48333452 1.68333468-.14166678.48333372-.13750011.89583405.01250001 1.23750099.14583345.34166694.45416703.6666672.91250073.97500078.4583337.30833358 1.38750111.75416727 2.77916889 1.33750107 1.92083487.77916729 3.13750251 1.57083459 3.65833626 2.36250189.52916709.7916673.60833382 1.78750143.25833354 2.98750239ZM379.34197014 342.36694056c-1.85416815 0-3.34166934.50833374-4.46667024 1.53333456-1.12083423 1.02916749-2.02500162 2.65833546-2.69583549 4.89167058l-.17916681.60833382c-.74166726 2.54583537-.85000068 4.36250349-.32083359 5.4583377.52916709 1.09583421 1.72916805 1.64166798 3.60000288 1.64166798 1.56250125 0 2.97083571-.62916717 4.22917005-1.89583485 1.25833434-1.26666768 2.20416843-3.01250241 2.85416895-5.23333752.65833386-2.25833514.72500058-3.98750319.18750015-5.19583749-.53750043-1.20416763-1.60416795-1.80833478-3.2083359-1.80833478Zm-4.40000352 16.43334648c-1.18333428 0-2.19166842-.22083351-3.03750243-.65416719-.85000068-.43750035-1.47083451-1.10416755-1.87083483-2.00416827h-.20000016c-.17083347 1.05000084-.39583365 2.05833498-.67500054 3.0000024l-2.17083507 7.45000596h-2.74166886l7.65000612-26.22085431h2.22916845l-.34583361 2.47500198h.13333344c.99166746-.99166746 2.02500162-1.7083347 3.08750247-2.15000172 1.06666752-.43333368 2.20000176-.65833386 3.41250273-.65833386 2.40000192 0 4.01250321.82083399 4.84167054 2.46250197.82083399 1.64166798.80833398 3.93750315-.05833338 6.90000552-.86666736 2.97500238-2.20416843 5.28333756-4.01250321 6.92917221-1.80833478 1.64583465-3.88750311 2.47083531-6.24167166 2.47083531ZM392.84198094 356.53361856c1.70416803 0 3.17916921-.46666704 4.42917021-1.40416779 1.24583433-.93333408 2.11666836-2.24583513 2.60416875-3.92916981l.47916705-1.63750131-2.77500222.12083343c-2.20000176.07500006-3.8750031.41250033-5.00833734 1.01250081-1.14166758.60416715-1.89166818 1.53333456-2.26250181 2.80416891-.28750023.98750079-.2083335 1.74166806.24166686 2.25833514.44583369.51666708 1.21250097.77500062 2.2916685.77500062Zm5.62917117 1.93333488.20416683-2.57500206h-.13333344c-1.23333432 1.13333424-2.35416855 1.90000152-3.36666936 2.30416851-1.02083415.40000032-2.19583509.60416715-3.5416695.60416715-1.7916681 0-3.06250245-.46666704-3.81250305-1.39166778-.7500006-.92083407-.8750007-2.23750179-.37916697-3.94583649 1.06666752-3.65416959 4.55000364-5.56667112 10.44584169-5.74583793l3.10000248-.09583341.32916693-1.1250009c.41250033-1.42083447.416667-2.47083531 0-3.14583585-.41250033-.67916721-1.28750103-1.01250081-2.63333544-1.01250081-1.50833454 0-3.34583601.4583337-5.52083775 1.38333444l-.23333352-2.09583501c1.03333416-.48750039 2.12083503-.86250069 3.26666928-1.14166758 1.13750091-.27500022 2.24583513-.40833366 3.31250265-.40833366 2.15833506 0 3.62083623.47500038 4.3750035 1.42916781.76250061.96250077.83750067 2.49583533.22083351 4.61250369l-3.60416955 12.35000988h-2.02916829ZM419.77950249 340.03777203c.80416731 0 1.50833454.06666672 2.10416835.20000016l-1.11666756 2.5416687c-.70000056-.16250013-1.34166774-.24583353-1.91250153-.24583353-1.46250117 0-2.89166898.59166714-4.27917009 1.78333476-1.38333444 1.18750095-2.34166854 2.67083547-2.85416895 4.44167022l-2.8333356 9.7083411h-2.74583553l5.28333756-18.09584781h2.26250181l-.6666672 3.35000268h.13333344c1.01666748-1.17916761 2.09166834-2.083335 3.22083591-2.72500218 1.13750091-.63750051 2.27083515-.9583341 3.40416939-.9583341ZM426.36284109 356.53361856c.48750039 0 .96250077-.03750003 1.43750115-.10416675.47083371-.07083339.85000068-.14583345 1.13750091-.22500018l-.61250049 2.10000168c-.33750027.14166678-.81250065.26250021-1.4166678.35416695-.60416715.09166674-1.14166758.14166678-1.60416795.14166678-3.5000028 0-4.7083371-1.84583481-3.63750291-5.53333776l3.14166918-10.76667528h-2.59166874l.38750031-1.32083439 2.92500234-1.14166758 2.27916849-3.86250309h1.58750127l-1.22083431 4.19583669h5.2500042l-.6250005 2.12916837h-5.2500042l-3.10416915 10.65000852c-.32083359 1.09166754-.30416691 1.92500154.0416667 2.50833534.35000028.58750047.97500078.8750007 1.8750015.8750007ZM443.50452147 342.33777387c-1.4583345 0-2.75416887.47083371-3.89583645 1.41250113-1.13750091.95000076-2.02916829 2.25833514-2.67083547 3.93333648h9.4583409c.50416707-1.72916805.50833374-3.05416911.00416667-3.97083651-.5000004-.9166674-1.47083451-1.3750011-2.89583565-1.3750011Zm-4.06250325 16.46251317c-2.67500214 0-4.55000364-.81666732-5.62083783-2.44583529-1.07083419-1.62916797-1.18333428-3.89166978-.33750027-6.7916721.85000068-2.91250233 2.24166846-5.22917085 4.17917001-6.94583889 1.93750155-1.72083471 4.12083663-2.57916873 6.5416719-2.57916873 2.26666848 0 3.84166974.74583393 4.72917045 2.23750179.88333404 1.49166786.97500078 3.46250277.26250021 5.90417139l-.50833374 1.73333472h-12.46667664c-.56666712 2.1250017-.5000004 3.73750299.19583349 4.84167054.70000056 1.10000088 1.97083491 1.65000132 3.82083639 1.65000132 1.94583489 0 3.99583653-.40833366 6.13750491-1.22083431l-.71250057 2.43750195c-1.09166754.42500034-2.09583501.72083391-3.01250241.90416739-.9166674.17916681-1.98750159.27500022-3.2083359.27500022ZM457.34203254 335.46276837c.18333348-.6250005.47083371-1.0833342.86666736-1.3750011.39583365-.2916669.82500066-.44166702 1.28333436-.44166702.44166702 0 .77916729.15000012 1.01250081.44583369.23333352.29583357.25833354.75416727.07916673 1.37083443-.18333348.62083383-.47500038 1.07916753-.88333404 1.37916777-.40416699.30416691-.833334.45416703-1.27083435.45416703-.46250037 0-.80416731-.15000012-1.02083415-.45416703-.22500018-.30000024-.24583353-.75833394-.06666672-1.37916777Zm-3.73750299 23.00418507h-2.74166886l5.28333756-18.09584781h2.74166886l-5.28333756 18.09584781Z"/></g></svg>
